<svg width="40" height="41" viewBox="0 0 40 41" fill="none" xmlns="http://www.w3.org/2000/svg">
<circle cx="20" cy="20.5176" r="19.5" fill="#080B18" stroke="black"/>
<path d="M24.0001 16.5176H24.8001M14.8001 12.5176H24.4001C26.1674 12.5176 27.6001 13.9503 27.6001 15.7176V25.3176C27.6001 27.0849 26.1674 28.5176 24.4001 28.5176H14.8001C13.0328 28.5176 11.6001 27.0849 11.6001 25.3176V15.7176C11.6001 13.9503 13.0328 12.5176 14.8001 12.5176ZM19.6001 23.7176C17.8328 23.7176 16.4001 22.2849 16.4001 20.5176C16.4001 18.7503 17.8328 17.3176 19.6001 17.3176C21.3674 17.3176 22.8001 18.7503 22.8001 20.5176C22.8001 22.2849 21.3674 23.7176 19.6001 23.7176Z" stroke="#F2F2F2" stroke-width="1.6"/>
</svg>
