<svg width="100" height="60" viewBox="0 0 100 60" fill="none" xmlns="http://www.w3.org/2000/svg">
<path fill-rule="evenodd" clip-rule="evenodd" d="M6.51928 37.1517C6.358 35.8584 6.27493 34.5407 6.27493 33.2037C6.27493 28.9443 7.11808 24.8817 8.64675 21.1733C8.70571 21.0302 8.84734 20.9401 9.00204 20.9401C13.9737 20.9401 18.0041 16.9135 18.0041 11.9465C18.0041 11.6378 17.9885 11.3326 17.9581 11.0318C17.8338 9.80218 18.136 8.49734 19.1302 7.76323C24.3846 3.8837 30.8834 1.59012 37.9184 1.59012C38.1483 1.59012 38.1945 1.26326 37.97 1.21389C35.8448 0.746416 33.6366 0.5 31.3708 0.5C26.1602 0.5 21.2542 1.80318 16.9616 4.10111C15.7794 4.73396 14.3345 4.57692 13.1441 3.95952C11.9042 3.31641 10.4956 2.95302 9.00204 2.95302C4.03035 2.95302 0 6.97955 0 11.9465C0 13.9443 0.651974 15.7899 1.75494 17.2825C2.55177 18.3609 2.93255 19.7636 2.49339 21.0304C1.40803 24.1614 0.818443 27.5236 0.818443 31.0235C0.818443 34.318 1.34087 37.4906 2.30748 40.4631C3.41372 43.8649 6.96192 40.7015 6.51928 37.1517ZM9.00135 17.3529C11.9902 17.3529 14.4131 14.9323 14.4131 11.9463C14.4131 8.9603 11.9902 6.53969 9.00135 6.53969C6.01254 6.53969 3.58964 8.9603 3.58964 11.9463C3.58964 14.9323 6.01254 17.3529 9.00135 17.3529Z" fill="white"/>
<path fill-rule="evenodd" clip-rule="evenodd" d="M20.348 59.5C11.8624 53.8296 6.27493 44.1686 6.27493 33.2037C6.27493 28.8535 7.15443 24.7085 8.74549 20.9365C8.83071 20.9389 8.91624 20.9401 9.00204 20.9401C13.9737 20.9401 18.0041 16.9135 18.0041 11.9465C18.0041 10.927 17.8342 9.94699 17.5213 9.03335C23.0294 4.38921 30.1467 1.59012 37.9184 1.59012C38.5034 1.59012 39.0847 1.60598 39.6618 1.63729C37.0253 0.896341 34.2444 0.5 31.3708 0.5C25.3499 0.5 19.7357 2.24 15.0046 5.24415C13.4118 3.8194 11.3082 2.95302 9.00204 2.95302C4.03035 2.95302 0 6.97955 0 11.9465C0 14.7587 1.29194 17.2694 3.3152 18.9186C1.70872 22.6299 0.818443 26.7228 0.818443 31.0235C0.818443 43.9983 8.92168 55.0824 20.348 59.5ZM9.00135 17.3529C11.9902 17.3529 14.4131 14.9323 14.4131 11.9463C14.4131 8.9603 11.9902 6.53969 9.00135 6.53969C6.01254 6.53969 3.58964 8.9603 3.58964 11.9463C3.58964 14.9323 6.01254 17.3529 9.00135 17.3529Z" fill="white"/>
<path d="M38.8577 17.5629L34.5558 30.648H31.9345L27.6509 17.5629H30.6284L33.2406 26.2954L35.8619 17.5629H38.8577Z" fill="white"/>
<path d="M42.3654 30.648H39.744V17.5629H42.3654V30.648Z" fill="white"/>
<path d="M47.0512 20.1817V25.4194H49.6725C50.0318 25.4194 50.3697 25.3525 50.6864 25.2187C51.003 25.0788 51.28 24.8902 51.5175 24.6529C51.755 24.4157 51.9407 24.1389 52.0747 23.8226C52.2147 23.5002 52.2847 23.1595 52.2847 22.8006C52.2847 22.4417 52.2147 22.1041 52.0747 21.7877C51.9407 21.4653 51.755 21.1855 51.5175 20.9482C51.28 20.711 51.003 20.5254 50.6864 20.3916C50.3697 20.2517 50.0318 20.1817 49.6725 20.1817H47.0512ZM47.0512 30.648H44.4299V17.5629H49.6725C50.1536 17.5629 50.6163 17.6268 51.0608 17.7545C51.5053 17.8762 51.9194 18.0526 52.303 18.2838C52.6927 18.5088 53.0459 18.7826 53.3625 19.105C53.6852 19.4213 53.9592 19.7742 54.1845 20.1635C54.4159 20.5528 54.5925 20.9695 54.7142 21.4136C54.8421 21.8577 54.9061 22.32 54.9061 22.8006C54.9061 23.2507 54.8482 23.6887 54.7325 24.1146C54.6229 24.5404 54.4616 24.9449 54.2484 25.3282C54.0414 25.7114 53.7857 26.0643 53.4812 26.3867C53.1768 26.7091 52.8358 26.9889 52.4583 27.2262L53.9105 30.648H51.1248L49.9831 28.0109L47.0512 28.0291V30.648Z" fill="white"/>
<path d="M61.5191 30.648H58.9069V20.1817H54.9703V17.5629H65.4465V20.1817H61.5191V30.648Z" fill="white"/>
<path d="M76.7907 25.4194C76.7907 26.1433 76.6537 26.8247 76.3797 27.4634C76.1057 28.0961 75.7312 28.6496 75.2563 29.1241C74.7813 29.5925 74.2242 29.9636 73.5848 30.2374C72.9516 30.5111 72.2727 30.648 71.5481 30.648C70.8235 30.648 70.1415 30.5111 69.5022 30.2374C68.8689 29.9636 68.3148 29.5925 67.8399 29.1241C67.371 28.6496 66.9996 28.0961 66.7256 27.4634C66.4516 26.8247 66.3146 26.1433 66.3146 25.4194V17.5629H68.9267V25.4194C68.9267 25.7783 68.9937 26.116 69.1277 26.4323C69.2677 26.7486 69.4565 27.0254 69.694 27.2627C69.9314 27.4999 70.2085 27.6885 70.5251 27.8284C70.8478 27.9622 71.1888 28.0291 71.5481 28.0291C71.9073 28.0291 72.2453 27.9622 72.5619 27.8284C72.8846 27.6885 73.1647 27.4999 73.4022 27.2627C73.6396 27.0254 73.8254 26.7486 73.9593 26.4323C74.0994 26.116 74.1694 25.7783 74.1694 25.4194V17.5629H76.7907V25.4194Z" fill="white"/>
<path d="M86.3082 25.4194V22.8006C86.3082 22.4417 86.2382 22.1041 86.0981 21.7877C85.9642 21.4653 85.7785 21.1855 85.541 20.9482C85.3035 20.711 85.0234 20.5254 84.7007 20.3916C84.3841 20.2517 84.0461 20.1817 83.6869 20.1817C83.3276 20.1817 82.9866 20.2517 82.6639 20.3916C82.3473 20.5254 82.0702 20.711 81.8328 20.9482C81.5953 21.1855 81.4065 21.4653 81.2665 21.7877C81.1325 22.1041 81.0656 22.4417 81.0656 22.8006V25.4194H86.3082ZM88.9295 30.648H86.3082V28.0291H81.0656V30.648H78.4534V22.8006C78.4534 22.0767 78.5904 21.3984 78.8644 20.7657C79.1384 20.127 79.5098 19.5704 79.9787 19.0959C80.4536 18.6214 81.0077 18.2473 81.641 17.9735C82.2803 17.6998 82.9623 17.5629 83.6869 17.5629C84.4115 17.5629 85.0904 17.6998 85.7237 17.9735C86.363 18.2473 86.9202 18.6214 87.3951 19.0959C87.87 19.5704 88.2445 20.127 88.5185 20.7657C88.7925 21.3984 88.9295 22.0767 88.9295 22.8006V30.648Z" fill="white"/>
<path d="M99.9997 30.648H90.8297V17.5629H93.451V28.0291H99.9997V30.648Z" fill="white"/>
<path d="M41.8444 49.3358H39.2322V39.9919C39.2322 39.8094 39.1957 39.639 39.1226 39.4809C39.0556 39.3227 38.9612 39.1858 38.8394 39.0703C38.7238 38.9486 38.5868 38.8543 38.4284 38.7874C38.2701 38.7205 38.0996 38.687 37.917 38.687C37.7343 38.687 37.5638 38.7205 37.4055 38.7874C37.2472 38.8543 37.1071 38.9486 36.9853 39.0703C36.8697 39.1858 36.7783 39.3227 36.7113 39.4809C36.6444 39.639 36.6109 39.8094 36.6109 39.9919V49.3358H33.9895V39.9919C33.9895 39.8094 33.9561 39.639 33.8891 39.4809C33.8221 39.3227 33.7277 39.1858 33.6059 39.0703C33.4902 38.9486 33.3532 38.8543 33.1949 38.7874C33.0366 38.7205 32.8661 38.687 32.6835 38.687C32.5008 38.687 32.3303 38.7205 32.172 38.7874C32.0137 38.8543 31.8736 38.9486 31.7518 39.0703C31.6361 39.1858 31.5448 39.3227 31.4778 39.4809C31.4108 39.639 31.3774 39.8094 31.3774 39.9919V49.3358H28.756V39.9919C28.756 39.4505 28.8565 38.9425 29.0574 38.468C29.2645 37.9874 29.5446 37.5707 29.8977 37.2179C30.257 36.859 30.6741 36.5792 31.149 36.3784C31.6301 36.1716 32.1415 36.0682 32.6835 36.0682C33.1706 36.0682 33.6394 36.1564 34.09 36.3328C34.5406 36.5031 34.9455 36.7525 35.3048 37.081C35.664 36.7525 36.0659 36.5031 36.5104 36.3328C36.961 36.1564 37.4298 36.0682 37.917 36.0682C38.4589 36.0682 38.9673 36.1716 39.4423 36.3784C39.9233 36.5792 40.3404 36.859 40.6936 37.2179C41.0528 37.5707 41.3329 37.9874 41.5338 38.468C41.7409 38.9425 41.8444 39.4505 41.8444 39.9919V49.3358Z" fill="white"/>
<path d="M56.6502 42.848C56.6502 43.4685 56.568 44.0677 56.4036 44.6456C56.2453 45.2174 56.02 45.7558 55.7277 46.2607C55.4354 46.7595 55.0823 47.2157 54.6682 47.6294C54.2542 48.0431 53.7975 48.3989 53.2982 48.697C52.7989 48.989 52.26 49.2141 51.6816 49.3723C51.1031 49.5365 50.5033 49.6186 49.8822 49.6186C49.2612 49.6186 48.6614 49.5365 48.0829 49.3723C47.5106 49.2141 46.9717 48.989 46.4663 48.697C45.967 48.3989 45.5103 48.0431 45.0963 47.6294C44.6822 47.2157 44.326 46.7595 44.0277 46.2607C43.7354 45.7558 43.507 45.2174 43.3426 44.6456C43.1843 44.0677 43.1052 43.4685 43.1052 42.848C43.1052 42.2275 43.1843 41.6283 43.3426 41.0504C43.507 40.4725 43.7354 39.9341 44.0277 39.4353C44.326 38.9364 44.6822 38.4802 45.0963 38.0665C45.5103 37.6529 45.967 37.3 46.4663 37.008C46.9717 36.716 47.5106 36.491 48.0829 36.3328C48.6614 36.1685 49.2612 36.0864 49.8822 36.0864C50.5033 36.0864 51.1031 36.1685 51.6816 36.3328C52.26 36.491 52.7989 36.716 53.2982 37.008C53.7975 37.3 54.2542 37.6529 54.6682 38.0665C55.0823 38.4802 55.4354 38.9364 55.7277 39.4353C56.02 39.9341 56.2453 40.4725 56.4036 41.0504C56.568 41.6283 56.6502 42.2275 56.6502 42.848ZM54.0471 42.848C54.0471 42.2761 53.9375 41.7378 53.7183 41.2329C53.4991 40.7219 53.2008 40.2808 52.8232 39.9098C52.4518 39.5326 52.0104 39.2345 51.4989 39.0155C50.9935 38.7965 50.4546 38.687 49.8822 38.687C49.3038 38.687 48.7619 38.7965 48.2565 39.0155C47.7511 39.2345 47.3096 39.5326 46.9321 39.9098C46.5546 40.2808 46.2562 40.7219 46.037 41.2329C45.8178 41.7378 45.7082 42.2761 45.7082 42.848C45.7082 43.4198 45.8178 43.9582 46.037 44.4631C46.2562 44.9619 46.5546 45.3999 46.9321 45.7771C47.3096 46.1542 47.7511 46.4523 48.2565 46.6713C48.7619 46.8903 49.3038 46.9998 49.8822 46.9998C50.4546 46.9998 50.9935 46.8903 51.4989 46.6713C52.0104 46.4523 52.4518 46.1542 52.8232 45.7771C53.2008 45.3999 53.4991 44.9619 53.7183 44.4631C53.9375 43.9582 54.0471 43.4198 54.0471 42.848Z" fill="white"/>
<path d="M79.4101 49.3358H76.6061L71.5552 40.7219V49.3358H68.9339V36.2507H71.7379L76.7887 44.8737V36.2507H79.4101V49.3358Z" fill="white"/>
<path fill-rule="evenodd" clip-rule="evenodd" d="M59.4013 49.8985C63.1501 49.8985 66.1891 46.8624 66.1891 43.1171C66.1891 39.3719 63.1501 36.3358 59.4013 36.3358C58.5222 36.3358 57.6822 36.5027 56.9113 36.8066C60.0557 37.1543 62.5024 39.847 62.5024 43.1171C62.5024 46.3873 60.0556 49.08 56.9111 49.4277C57.6821 49.7316 58.5222 49.8985 59.4013 49.8985Z" fill="white"/>
</svg>
