<svg width="18" height="20" viewBox="0 0 18 20" fill="none" xmlns="http://www.w3.org/2000/svg">
<path d="M17.3975 12.9033L12.4771 9.99978L17.3975 7.09624C17.6748 6.93261 17.7697 6.57054 17.6097 6.28696L16.4506 4.2349C16.2906 3.95169 15.9362 3.85433 15.659 4.01796L10.7385 6.9215V1.11479C10.7385 0.78753 10.479 0.522461 10.159 0.522461H7.84089C7.5209 0.522461 7.26136 0.78753 7.26136 1.11479V6.92187L2.34096 4.01833C2.06368 3.8547 1.7093 3.95206 1.54931 4.23527L0.390243 6.28696C0.230248 6.57017 0.325087 6.93261 0.602364 7.09624L5.52277 9.99978L0.602364 12.9033C0.325087 13.0669 0.230248 13.4294 0.390243 13.7126L1.54931 15.7647C1.7093 16.0479 2.06368 16.1449 2.34096 15.9816L7.26136 13.0781V18.8848C7.26136 19.212 7.5209 19.4771 7.84089 19.4771H10.159C10.479 19.4771 10.7385 19.212 10.7385 18.8848V13.0777L15.659 15.9812C15.9362 16.1449 16.2906 16.0479 16.4506 15.7643L17.6097 13.7122C17.7697 13.429 17.6748 13.0669 17.3975 12.9033Z" fill="#0066FF"/>
</svg>
