<svg width="40" height="41" viewBox="0 0 40 41" fill="none" xmlns="http://www.w3.org/2000/svg">
<circle cx="20" cy="20.5176" r="19.5" fill="#080B18" stroke="black"/>
<path d="M27.5754 13.7176L28.3737 13.6647C28.3524 13.3438 28.141 13.0668 27.8371 12.9616C27.5331 12.8564 27.1958 12.9435 26.9807 13.1826L27.5754 13.7176ZM27.2343 17.0992C27.2343 16.6574 26.8761 16.2992 26.4343 16.2992C25.9925 16.2992 25.6343 16.6574 25.6343 17.0992H27.2343ZM19.6001 18.1176V18.9176H20.4001V18.1176H19.6001ZM12.7412 13.7176L13.4904 13.4371C13.3788 13.139 13.101 12.9354 12.7831 12.9187C12.4652 12.902 12.1676 13.0755 12.0254 13.3603L12.7412 13.7176ZM17.2001 24.1176L17.7662 24.6829C17.962 24.4868 18.0424 24.2034 17.9787 23.9337C17.915 23.664 17.7163 23.4465 17.4534 23.3588L17.2001 24.1176ZM11.6001 26.2891V25.4891C11.2477 25.4891 10.9368 25.7197 10.8345 26.057C10.7323 26.3942 10.8628 26.7587 11.1559 26.9544L11.6001 26.2891ZM25.5613 14.8301L24.9679 15.3666L25.2562 15.6854L25.6811 15.621L25.5613 14.8301ZM26.7772 13.7705C26.8353 14.648 26.7788 15.1511 26.6501 15.5138C26.5274 15.8599 26.3119 16.1555 25.8808 16.5686L26.9878 17.7238C27.4997 17.2333 27.9156 16.7323 28.1581 16.0488C28.3946 15.382 28.4372 14.6225 28.3737 13.6647L26.7772 13.7705ZM27.2343 17.9319V17.1462H25.6343V17.9319H27.2343ZM27.2343 17.1462V17.0992H25.6343V17.1462H27.2343ZM18.8001 17.3176V18.1176H20.4001V17.3176H18.8001ZM23.0579 12.9176C20.6589 12.9176 18.8001 14.9981 18.8001 17.3176H20.4001C20.4001 15.7981 21.6239 14.5176 23.0579 14.5176V12.9176ZM25.6343 17.9319C25.6343 22.7526 21.5813 26.9176 16.8001 26.9176V28.5176C22.4961 28.5176 27.2343 23.6047 27.2343 17.9319H25.6343ZM11.992 13.9981C12.6453 15.7431 15.0706 18.9176 19.6001 18.9176V17.3176C15.9137 17.3176 13.9781 14.7398 13.4904 13.4371L11.992 13.9981ZM12.0254 13.3603C10.809 15.797 10.5813 18.2159 11.4511 20.2975C12.3209 22.3791 14.223 23.9671 16.9468 24.8765L17.4534 23.3588C15.0422 22.5538 13.5738 21.2276 12.9274 19.6806C12.2809 18.1336 12.3912 16.2097 13.457 14.0749L12.0254 13.3603ZM16.634 23.5524C15.9872 24.2002 14.0801 25.4891 11.6001 25.4891V27.0891C14.5973 27.0891 16.8916 25.5589 17.7662 24.6829L16.634 23.5524ZM26.1547 14.2935C25.3918 13.4498 24.2865 12.9176 23.0579 12.9176V14.5176C23.815 14.5176 24.4952 14.8439 24.9679 15.3666L26.1547 14.2935ZM25.6811 15.621C26.6046 15.4812 27.5 14.9976 28.1702 14.2527L26.9807 13.1826C26.5485 13.6629 25.9845 13.9568 25.4415 14.0391L25.6811 15.621ZM11.1559 26.9544C13.0407 28.2129 14.857 28.5176 16.8001 28.5176V26.9176C15.0554 26.9176 13.5828 26.6509 12.0443 25.6237L11.1559 26.9544Z" fill="#F2F2F2"/>
</svg>
