<svg width="40" height="41" viewBox="0 0 40 41" fill="none" xmlns="http://www.w3.org/2000/svg">
<circle cx="20" cy="20.5176" r="19.5" fill="#080B18" stroke="black"/>
<path d="M12.0328 27.349L11.8798 28.1342H11.8798L12.0328 27.349ZM27.967 27.349L28.12 28.1342L27.967 27.349ZM28.0764 13.7513L28.2399 12.9682L28.0764 13.7513ZM11.9234 13.7513L12.0869 14.5344L12.0869 14.5344L11.9234 13.7513ZM18.0799 17.6772L18.4837 16.9865C18.2362 16.8419 17.9304 16.8406 17.6818 16.9833C17.4332 17.1259 17.2799 17.3906 17.2799 17.6772H18.0799ZM18.0799 23.2893H17.2799C17.2799 23.5759 17.4332 23.8406 17.6818 23.9832C17.9304 24.1258 18.2362 24.1246 18.4837 23.98L18.0799 23.2893ZM22.8799 20.4832L23.2837 21.1739C23.5291 21.0304 23.6799 20.7675 23.6799 20.4832C23.6799 20.199 23.5291 19.9361 23.2837 19.7926L22.8799 20.4832ZM9.5999 15.5874V25.4083H11.1999V15.5874H9.5999ZM30.3999 25.4083V15.5874H28.7999V25.4083H30.3999ZM11.8798 28.1342C17.2402 29.1787 22.7596 29.1787 28.12 28.1342L27.814 26.5637C22.6557 27.5689 17.3441 27.5689 12.1858 26.5637L11.8798 28.1342ZM28.2399 12.9682C22.8082 11.8341 17.1916 11.8341 11.7599 12.9682L12.0869 14.5344C17.303 13.4453 22.6968 13.4453 27.9129 14.5344L28.2399 12.9682ZM30.3999 15.5874C30.3999 14.3093 29.4857 13.2283 28.2399 12.9682L27.9129 14.5344C28.4444 14.6454 28.7999 15.0946 28.7999 15.5874H30.3999ZM28.7999 25.4083C28.7999 25.9547 28.4018 26.4492 27.814 26.5637L28.12 28.1342C29.4312 27.8787 30.3999 26.7487 30.3999 25.4083H28.7999ZM9.5999 25.4083C9.5999 26.7487 10.5686 27.8787 11.8798 28.1342L12.1858 26.5637C11.598 26.4492 11.1999 25.9547 11.1999 25.4083H9.5999ZM11.1999 15.5874C11.1999 15.0946 11.5554 14.6454 12.0869 14.5344L11.7599 12.9682C10.5141 13.2283 9.5999 14.3093 9.5999 15.5874H11.1999ZM17.2799 17.6772V23.2893H18.8799V17.6772H17.2799ZM18.4837 23.98L23.2837 21.1739L22.4762 19.7926L17.6762 22.5987L18.4837 23.98ZM23.2837 19.7926L18.4837 16.9865L17.6762 18.3678L22.4762 21.1739L23.2837 19.7926Z" fill="#F2F2F2"/>
</svg>
